# Wavefront OBJ file
# Exported by Misfit Model 3D 1.3.8
# Wed Jul 29 12:07:44 2026

# 8 Vertices
v -0.122212 -0.005276 0.122242
v -0.122212 1.24333 0.122242
v -0.122212 -0.005276 -0.122242
v -0.122212 1.24333 -0.122242
v 0.122212 -0.005276 0.122242
v 0.122212 1.24333 0.122242
v 0.122212 -0.005276 -0.122242
v 0.122212 1.24333 -0.122242

# 36 Texture Coordinates
vt 0.0 1.0
vt 0.0 0.0
vt 0.200029 0.0
vt 0.0 1.0
vt 0.200029 0.0
vt 0.200029 1.0
vt 0.400059 1.0
vt 0.400059 0.0
vt 0.600039 0.0
vt 0.400059 1.0
vt 0.600039 0.0
vt 0.600039 1.0
vt 0.400059 0.0
vt 0.400059 1.0
vt 0.200029 1.0
vt 0.400059 0.0
vt 0.200029 1.0
vt 0.200029 0.0
vt 0.600039 1.0
vt 0.600039 0.0
vt 0.80002 0.0
vt 0.600039 1.0
vt 0.80002 0.0
vt 0.80002 1.0
vt 0.80002 0.195805
vt 1.0 0.195805
vt 1.0 0.39161
vt 0.80002 0.195805
vt 1.0 0.39161
vt 0.80002 0.39161
vt 1.0 0.195805
vt 0.80002 0.195805
vt 0.80002 0.0
vt 1.0 0.195805
vt 0.80002 0.0
vt 1.0 0.0

# 36 Vertex Normals
vn -1.0 0.0 -0.0
vn -1.0 0.0 -0.0
vn -1.0 0.0 -0.0
vn -1.0 0.0 -0.0
vn -1.0 0.0 -0.0
vn -1.0 0.0 -0.0
vn 0.0 0.0 -1.0
vn 0.0 0.0 -1.0
vn 0.0 0.0 -1.0
vn 0.0 0.0 -1.0
vn 0.0 0.0 -1.0
vn 0.0 0.0 -1.0
vn 1.0 0.0 0.0
vn 1.0 0.0 0.0
vn 1.0 0.0 0.0
vn 1.0 0.0 0.0
vn 1.0 0.0 0.0
vn 1.0 0.0 0.0
vn 0.0 0.0 1.0
vn 0.0 0.0 1.0
vn 0.0 0.0 1.0
vn 0.0 0.0 1.0
vn 0.0 0.0 1.0
vn 0.0 0.0 1.0
vn 0.0 -1.0 0.0
vn 0.0 -1.0 0.0
vn 0.0 -1.0 0.0
vn 0.0 -1.0 0.0
vn 0.0 -1.0 0.0
vn -0.0 -1.0 0.0
vn 0.0 1.0 0.0
vn -0.0 1.0 0.0
vn 0.0 1.0 0.0
vn 0.0 1.0 0.0
vn 0.0 1.0 0.0
vn 0.0 1.0 0.0

# 12 Ungrouped triangles

o ungrouped
g ungrouped

f 1/1/1 2/2/2 4/3/3
f 1/4/4 4/5/5 3/6/6
f 3/7/7 4/8/8 8/9/9
f 3/10/10 8/11/11 7/12/12
f 7/13/13 8/14/14 6/15/15
f 7/16/16 6/17/17 5/18/18
f 5/19/19 6/20/20 2/21/21
f 5/22/22 2/23/23 1/24/24
f 3/25/25 7/26/26 5/27/27
f 3/28/28 5/29/29 1/30/30
f 8/31/31 4/32/32 2/33/33
f 8/34/34 2/35/35 6/36/36
