# Wavefront OBJ file
# Exported by Misfit Model 3D 1.3.8
# Mon Jul 27 16:27:38 2026

# 48 Vertices
v -0.1016 0.301366 0.0508
v 0.1016 0.301366 0.0508
v -0.1016 0.301366 -0.0508
v 0.1016 0.301366 -0.0508
v -0.1016 0.606166 0.0508
v 0.1016 0.606166 0.0508
v -0.1016 0.606166 -0.0508
v 0.1016 0.606166 -0.0508
v -0.1016 0.606166 0.1016
v 0.1016 0.606166 0.1016
v -0.1016 0.606166 -0.1016
v 0.1016 0.606166 -0.1016
v -0.1016 0.809366 0.1016
v 0.1016 0.809366 0.1016
v -0.1016 0.809366 -0.1016
v 0.1016 0.809366 -0.1016
v 0.1016 0.301366 0.0508
v 0.2032 0.301366 0.0508
v 0.1016 0.301366 -0.0508
v 0.2032 0.301366 -0.0508
v 0.1016 0.606166 0.0508
v 0.2032 0.606166 0.0508
v 0.1016 0.606166 -0.0508
v 0.2032 0.606166 -0.0508
v -0.2032 0.301366 0.0508
v -0.1016 0.301366 0.0508
v -0.2032 0.301366 -0.0508
v -0.1016 0.301366 -0.0508
v -0.2032 0.606166 0.0508
v -0.1016 0.606166 0.0508
v -0.2032 0.606166 -0.0508
v -0.1016 0.606166 -0.0508
v 0.0 -0.003434 0.0508
v 0.1016 -0.003434 0.0508
v 0.0 -0.003434 -0.0508
v 0.1016 -0.003434 -0.0508
v 0.0 0.301366 0.0508
v 0.1016 0.301366 0.0508
v 0.0 0.301366 -0.0508
v 0.1016 0.301366 -0.0508
v -0.1016 -0.003434 0.0508
v 0.0 -0.003434 0.0508
v -0.1016 -0.003434 -0.0508
v 0.0 -0.003434 -0.0508
v -0.1016 0.301366 0.0508
v 0.0 0.301366 0.0508
v -0.1016 0.301366 -0.0508
v 0.0 0.301366 -0.0508

# 216 Texture Coordinates
vt 0.4375 0.6875
vt 0.4375 0.75
vt 0.5625 0.75
vt 0.4375 0.6875
vt 0.5625 0.75
vt 0.562375 0.6875
vt 0.3125 0.6875
vt 0.4375 0.6875
vt 0.4375 0.75
vt 0.3125 0.6875
vt 0.4375 0.75
vt 0.3125 0.75
vt 0.3125 0.5
vt 0.4375 0.5
vt 0.4375 0.6875
vt 0.3125 0.5
vt 0.4375 0.6875
vt 0.3125 0.6875
vt 0.4375 0.5
vt 0.5 0.5
vt 0.5 0.6875
vt 0.4375 0.5
vt 0.5 0.6875
vt 0.4375 0.6875
vt 0.5 0.5
vt 0.625 0.5
vt 0.625 0.6875
vt 0.5 0.5
vt 0.625 0.6875
vt 0.5 0.6875
vt 0.25 0.5
vt 0.3125 0.5
vt 0.3125 0.6875
vt 0.25 0.5
vt 0.3125 0.6875
vt 0.25 0.6875
vt 0.25 1.0
vt 0.375 1.0
vt 0.375 0.875
vt 0.25 1.0
vt 0.375 0.875
vt 0.25 0.875
vt 0.125 0.875
vt 0.25 0.875
vt 0.25 1.0
vt 0.125 0.875
vt 0.25 1.0
vt 0.125 1.0
vt 0.125 0.75
vt 0.25 0.75
vt 0.25 0.875
vt 0.125 0.75
vt 0.25 0.875
vt 0.125 0.875
vt 0.25 0.75
vt 0.375 0.75
vt 0.375 0.875
vt 0.25 0.75
vt 0.375 0.875
vt 0.25 0.875
vt 0.375 0.75
vt 0.5 0.75
vt 0.5 0.875
vt 0.375 0.75
vt 0.5 0.875
vt 0.375 0.875
vt 0.0 0.75
vt 0.125 0.75
vt 0.125 0.875
vt 0.0 0.75
vt 0.125 0.875
vt 0.0 0.875
vt 0.625 0.1875
vt 0.625 0.25
vt 0.6875 0.25
vt 0.625 0.1875
vt 0.6875 0.25
vt 0.6875 0.1875
vt 0.5625 0.1875
vt 0.625 0.1875
vt 0.625 0.25
vt 0.5625 0.1875
vt 0.625 0.25
vt 0.5625 0.25
vt 0.5625 0.0
vt 0.625 0.0
vt 0.625 0.1875
vt 0.5625 0.0
vt 0.625 0.1875
vt 0.5625 0.1875
vt 0.625 0.0
vt 0.6875 0.0
vt 0.6875 0.1875
vt 0.625 0.0
vt 0.6875 0.1875
vt 0.625 0.1875
vt 0.6875 0.0
vt 0.75 0.0
vt 0.75 0.1875
vt 0.6875 0.0
vt 0.75 0.1875
vt 0.6875 0.1875
vt 0.5 0.0
vt 0.5625 0.0
vt 0.5625 0.1875
vt 0.5 0.0
vt 0.5625 0.1875
vt 0.5 0.1875
vt 0.75 0.6875
vt 0.75 0.75
vt 0.8125 0.75
vt 0.75 0.6875
vt 0.8125 0.75
vt 0.8125 0.6875
vt 0.6875 0.6875
vt 0.75 0.6875
vt 0.75 0.75
vt 0.6875 0.6875
vt 0.75 0.75
vt 0.6875 0.75
vt 0.6875 0.5
vt 0.75 0.5
vt 0.75 0.6875
vt 0.6875 0.5
vt 0.75 0.6875
vt 0.6875 0.6875
vt 0.75 0.5
vt 0.8125 0.5
vt 0.8125 0.6875
vt 0.75 0.5
vt 0.8125 0.6875
vt 0.75 0.6875
vt 0.8125 0.5
vt 0.875 0.5
vt 0.875 0.6875
vt 0.8125 0.5
vt 0.875 0.6875
vt 0.8125 0.6875
vt 0.625 0.5
vt 0.6875 0.5
vt 0.6875 0.6875
vt 0.625 0.5
vt 0.6875 0.6875
vt 0.625 0.6875
vt 0.375 0.1875
vt 0.375 0.25
vt 0.4375 0.25
vt 0.375 0.1875
vt 0.4375 0.25
vt 0.4375 0.1875
vt 0.3125 0.1875
vt 0.375 0.1875
vt 0.375 0.25
vt 0.3125 0.1875
vt 0.375 0.25
vt 0.3125 0.25
vt 0.3125 0.0
vt 0.375 0.0
vt 0.375 0.1875
vt 0.3125 0.0
vt 0.375 0.1875
vt 0.3125 0.1875
vt 0.375 0.0
vt 0.4375 0.0
vt 0.4375 0.1875
vt 0.375 0.0
vt 0.4375 0.1875
vt 0.375 0.1875
vt 0.4375 0.0
vt 0.5 0.0
vt 0.5 0.1875
vt 0.4375 0.0
vt 0.5 0.1875
vt 0.4375 0.1875
vt 0.25 0.0
vt 0.3125 0.0
vt 0.3125 0.1875
vt 0.25 0.0
vt 0.3125 0.1875
vt 0.25 0.1875
vt 0.125 0.6875
vt 0.125 0.75
vt 0.1875 0.75
vt 0.125 0.6875
vt 0.1875 0.75
vt 0.1875 0.6875
vt 0.0625 0.6875
vt 0.125 0.6875
vt 0.125 0.75
vt 0.0625 0.6875
vt 0.125 0.75
vt 0.0625 0.75
vt 0.0625 0.5
vt 0.125 0.5
vt 0.125 0.6875
vt 0.0625 0.5
vt 0.125 0.6875
vt 0.0625 0.6875
vt 0.125 0.5
vt 0.1875 0.5
vt 0.1875 0.6875
vt 0.125 0.5
vt 0.1875 0.6875
vt 0.125 0.6875
vt 0.1875 0.5
vt 0.25 0.5
vt 0.25 0.6875
vt 0.1875 0.5
vt 0.25 0.6875
vt 0.1875 0.6875
vt 0.0 0.5
vt 0.0625 0.5
vt 0.0625 0.6875
vt 0.0 0.5
vt 0.0625 0.6875
vt 0.0 0.6875

# 216 Vertex Normals
vn 0.0 -1.0 0.0
vn 0.0 -1.0 0.0
vn 0.0 -1.0 0.0
vn 0.0 -1.0 0.0
vn 0.0 -1.0 0.0
vn 0.0 -1.0 0.0
vn 0.0 1.0 0.0
vn 0.0 1.0 0.0
vn 0.0 1.0 0.0
vn 0.0 1.0 0.0
vn 0.0 1.0 0.0
vn -0.0 1.0 0.0
vn 0.0 -0.0 1.0
vn 0.0 -0.0 1.0
vn 0.0 -0.0 1.0
vn 0.0 -0.0 1.0
vn 0.0 -0.0 1.0
vn 0.0 -0.0 1.0
vn 1.0 0.0 0.0
vn 1.0 0.0 -0.0
vn 1.0 0.0 0.0
vn 1.0 0.0 0.0
vn 1.0 0.0 0.0
vn 1.0 0.0 0.0
vn 0.0 -0.0 -1.0
vn 0.0 -0.0 -1.0
vn 0.0 -0.0 -1.0
vn 0.0 -0.0 -1.0
vn 0.0 -0.0 -1.0
vn 0.0 -0.0 -1.0
vn -1.0 0.0 0.0
vn -1.0 0.0 0.0
vn -1.0 0.0 0.0
vn -1.0 0.0 0.0
vn -1.0 0.0 0.0
vn -1.0 0.0 -0.0
vn -0.0 -1.0 0.0
vn -0.0 -1.0 0.0
vn -0.0 -1.0 0.0
vn -0.0 -1.0 0.0
vn -0.0 -1.0 0.0
vn -0.0 -1.0 0.0
vn 0.0 1.0 0.0
vn -0.0 1.0 0.0
vn 0.0 1.0 0.0
vn 0.0 1.0 0.0
vn 0.0 1.0 0.0
vn 0.0 1.0 0.0
vn 0.0 -0.0 1.0
vn 0.0 -0.0 1.0
vn 0.0 -0.0 1.0
vn 0.0 -0.0 1.0
vn 0.0 -0.0 1.0
vn 0.0 -0.0 1.0
vn 1.0 0.0 0.0
vn 1.0 0.0 -0.0
vn 1.0 0.0 0.0
vn 1.0 0.0 0.0
vn 1.0 0.0 0.0
vn 1.0 0.0 0.0
vn 0.0 -0.0 -1.0
vn 0.0 -0.0 -1.0
vn 0.0 -0.0 -1.0
vn 0.0 -0.0 -1.0
vn 0.0 -0.0 -1.0
vn 0.0 -0.0 -1.0
vn -1.0 0.0 0.0
vn -1.0 0.0 0.0
vn -1.0 0.0 0.0
vn -1.0 0.0 0.0
vn -1.0 0.0 0.0
vn -1.0 0.0 -0.0
vn 0.0 -1.0 0.0
vn 0.0 -1.0 0.0
vn 0.0 -1.0 0.0
vn 0.0 -1.0 0.0
vn 0.0 -1.0 0.0
vn 0.0 -1.0 0.0
vn 0.0 1.0 0.0
vn 0.0 1.0 0.0
vn 0.0 1.0 0.0
vn 0.0 1.0 0.0
vn 0.0 1.0 0.0
vn -0.0 1.0 0.0
vn 0.0 -0.0 1.0
vn 0.0 -0.0 1.0
vn 0.0 -0.0 1.0
vn 0.0 -0.0 1.0
vn 0.0 -0.0 1.0
vn 0.0 -0.0 1.0
vn 1.0 0.0 0.0
vn 1.0 0.0 -0.0
vn 1.0 0.0 0.0
vn 1.0 0.0 0.0
vn 1.0 0.0 0.0
vn 1.0 0.0 0.0
vn 0.0 -0.0 -1.0
vn 0.0 -0.0 -1.0
vn 0.0 -0.0 -1.0
vn 0.0 -0.0 -1.0
vn 0.0 -0.0 -1.0
vn 0.0 -0.0 -1.0
vn -1.0 0.0 0.0
vn -1.0 0.0 -0.0
vn -1.0 0.0 0.0
vn -1.0 0.0 0.0
vn -1.0 0.0 0.0
vn -1.0 0.0 0.0
vn 0.0 -1.0 0.0
vn 0.0 -1.0 0.0
vn 0.0 -1.0 0.0
vn 0.0 -1.0 0.0
vn 0.0 -1.0 0.0
vn 0.0 -1.0 0.0
vn 0.0 1.0 0.0
vn 0.0 1.0 0.0
vn 0.0 1.0 0.0
vn 0.0 1.0 0.0
vn 0.0 1.0 0.0
vn -0.0 1.0 0.0
vn 0.0 -0.0 1.0
vn 0.0 -0.0 1.0
vn 0.0 -0.0 1.0
vn 0.0 -0.0 1.0
vn 0.0 -0.0 1.0
vn 0.0 -0.0 1.0
vn 1.0 0.0 0.0
vn 1.0 0.0 0.0
vn 1.0 0.0 0.0
vn 1.0 0.0 0.0
vn 1.0 0.0 0.0
vn 1.0 0.0 -0.0
vn 0.0 -0.0 -1.0
vn 0.0 -0.0 -1.0
vn 0.0 -0.0 -1.0
vn 0.0 -0.0 -1.0
vn 0.0 -0.0 -1.0
vn 0.0 -0.0 -1.0
vn -1.0 0.0 0.0
vn -1.0 0.0 0.0
vn -1.0 0.0 0.0
vn -1.0 0.0 0.0
vn -1.0 0.0 0.0
vn -1.0 0.0 -0.0
vn -0.0 -1.0 0.0
vn -0.0 -1.0 0.0
vn -0.0 -1.0 0.0
vn -0.0 -1.0 0.0
vn -0.0 -1.0 0.0
vn -0.0 -1.0 0.0
vn 0.0 1.0 0.0
vn -0.0 1.0 0.0
vn 0.0 1.0 0.0
vn 0.0 1.0 0.0
vn 0.0 1.0 0.0
vn 0.0 1.0 0.0
vn 0.0 -0.0 1.0
vn 0.0 -0.0 1.0
vn 0.0 -0.0 1.0
vn 0.0 -0.0 1.0
vn 0.0 -0.0 1.0
vn 0.0 -0.0 1.0
vn 1.0 0.0 0.0
vn 1.0 0.0 -0.0
vn 1.0 0.0 0.0
vn 1.0 0.0 0.0
vn 1.0 0.0 0.0
vn 1.0 0.0 0.0
vn 0.0 -0.0 -1.0
vn 0.0 -0.0 -1.0
vn 0.0 -0.0 -1.0
vn 0.0 -0.0 -1.0
vn 0.0 -0.0 -1.0
vn 0.0 -0.0 -1.0
vn -1.0 0.0 0.0
vn -1.0 0.0 0.0
vn -1.0 0.0 0.0
vn -1.0 0.0 0.0
vn -1.0 0.0 0.0
vn -1.0 0.0 0.0
vn -0.0 -1.0 0.0
vn -0.0 -1.0 0.0
vn -0.0 -1.0 0.0
vn -0.0 -1.0 0.0
vn -0.0 -1.0 0.0
vn -0.0 -1.0 0.0
vn 0.0 1.0 0.0
vn -0.0 1.0 0.0
vn 0.0 1.0 0.0
vn 0.0 1.0 0.0
vn 0.0 1.0 0.0
vn 0.0 1.0 0.0
vn 0.0 -0.0 1.0
vn 0.0 -0.0 1.0
vn 0.0 -0.0 1.0
vn 0.0 -0.0 1.0
vn 0.0 -0.0 1.0
vn 0.0 -0.0 1.0
vn 1.0 0.0 0.0
vn 1.0 0.0 0.0
vn 1.0 0.0 0.0
vn 1.0 0.0 0.0
vn 1.0 0.0 0.0
vn 1.0 0.0 0.0
vn 0.0 -0.0 -1.0
vn 0.0 -0.0 -1.0
vn 0.0 -0.0 -1.0
vn 0.0 -0.0 -1.0
vn 0.0 -0.0 -1.0
vn 0.0 -0.0 -1.0
vn -1.0 0.0 0.0
vn -1.0 0.0 0.0
vn -1.0 0.0 0.0
vn -1.0 0.0 0.0
vn -1.0 0.0 0.0
vn -1.0 0.0 -0.0

# 72 Ungrouped triangles

o ungrouped
g ungrouped

f 1/1/1 3/2/2 4/3/3
f 1/4/4 4/5/5 2/6/6
f 5/7/7 6/8/8 8/9/9
f 5/10/10 8/11/11 7/12/12
f 1/13/13 2/14/14 6/15/15
f 1/16/16 6/17/17 5/18/18
f 2/19/19 4/20/20 8/21/21
f 2/22/22 8/23/23 6/24/24
f 4/25/25 3/26/26 7/27/27
f 4/28/28 7/29/29 8/30/30
f 3/31/31 1/32/32 5/33/33
f 3/34/34 5/35/35 7/36/36
f 9/37/37 11/38/38 12/39/39
f 9/40/40 12/41/41 10/42/42
f 13/43/43 14/44/44 16/45/45
f 13/46/46 16/47/47 15/48/48
f 9/49/49 10/50/50 14/51/51
f 9/52/52 14/53/53 13/54/54
f 10/55/55 12/56/56 16/57/57
f 10/58/58 16/59/59 14/60/60
f 12/61/61 11/62/62 15/63/63
f 12/64/64 15/65/65 16/66/66
f 11/67/67 9/68/68 13/69/69
f 11/70/70 13/71/71 15/72/72
f 17/73/73 19/74/74 20/75/75
f 17/76/76 20/77/77 18/78/78
f 21/79/79 22/80/80 24/81/81
f 21/82/82 24/83/83 23/84/84
f 17/85/85 18/86/86 22/87/87
f 17/88/88 22/89/89 21/90/90
f 18/91/91 20/92/92 24/93/93
f 18/94/94 24/95/95 22/96/96
f 20/97/97 19/98/98 23/99/99
f 20/100/100 23/101/101 24/102/102
f 19/103/103 17/104/104 21/105/105
f 19/106/106 21/107/107 23/108/108
f 25/109/109 27/110/110 28/111/111
f 25/112/112 28/113/113 26/114/114
f 29/115/115 30/116/116 32/117/117
f 29/118/118 32/119/119 31/120/120
f 25/121/121 26/122/122 30/123/123
f 25/124/124 30/125/125 29/126/126
f 26/127/127 28/128/128 32/129/129
f 26/130/130 32/131/131 30/132/132
f 28/133/133 27/134/134 31/135/135
f 28/136/136 31/137/137 32/138/138
f 27/139/139 25/140/140 29/141/141
f 27/142/142 29/143/143 31/144/144
f 33/145/145 35/146/146 36/147/147
f 33/148/148 36/149/149 34/150/150
f 37/151/151 38/152/152 40/153/153
f 37/154/154 40/155/155 39/156/156
f 33/157/157 34/158/158 38/159/159
f 33/160/160 38/161/161 37/162/162
f 34/163/163 36/164/164 40/165/165
f 34/166/166 40/167/167 38/168/168
f 36/169/169 35/170/170 39/171/171
f 36/172/172 39/173/173 40/174/174
f 35/175/175 33/176/176 37/177/177
f 35/178/178 37/179/179 39/180/180
f 41/181/181 43/182/182 44/183/183
f 41/184/184 44/185/185 42/186/186
f 45/187/187 46/188/188 48/189/189
f 45/190/190 48/191/191 47/192/192
f 41/193/193 42/194/194 46/195/195
f 41/196/196 46/197/197 45/198/198
f 42/199/199 44/200/200 48/201/201
f 42/202/202 48/203/203 46/204/204
f 44/205/205 43/206/206 47/207/207
f 44/208/208 47/209/209 48/210/210
f 43/211/211 41/212/212 45/213/213
f 43/214/214 45/215/215 47/216/216
